<?xml version="1.0" encoding="utf-8"?>
<!-- Generator: Adobe Illustrator 15.0.0, SVG Export Plug-In . SVG Version: 6.00 Build 0)  -->
<!DOCTYPE svg PUBLIC "-//W3C//DTD SVG 1.1//EN" "http://www.w3.org/Graphics/SVG/1.1/DTD/svg11.dtd">
<svg version="1.1" id="Layer_1" xmlns="http://www.w3.org/2000/svg" xmlns:xlink="http://www.w3.org/1999/xlink" x="0px" y="0px"
	 width="207px" height="207px" viewBox="0 0 207 207" enable-background="new 0 0 207 207" xml:space="preserve">
<pattern  x="-202" y="500" width="78.741" height="68.194" patternUnits="userSpaceOnUse" id="Diamond_Cubes" viewBox="6.56 -79.558 78.741 68.194" overflow="visible">
	<g>
		<polygon fill="none" points="6.56,-11.363 85.301,-11.363 85.301,-79.558 6.56,-79.558 		"/>
		<g>
			<polygon fill="none" points="6.561,-79.559 6.561,-11.363 85.302,-11.363 85.302,-79.559 			"/>
			<polygon fill="none" points="85.302,-11.363 85.302,-79.559 6.561,-79.559 6.561,-11.363 			"/>
			<polygon fill="#D3CAB7" points="45.932,-34.096 39.369,-45.463 26.247,-45.463 32.807,-34.096 			"/>
			<polygon fill="#D3CAB7" points="45.932,-56.828 39.369,-68.193 26.247,-68.193 32.807,-56.828 			"/>
			<polygon fill="#D3CAB7" points="65.616,-68.193 59.054,-79.559 45.932,-79.559 52.493,-68.193 			"/>
			<polygon fill="#D3CAB7" points="65.616,-45.463 59.054,-56.826 45.932,-56.826 52.493,-45.463 			"/>
			<polygon fill="#D3CAB7" points="26.247,-68.193 19.685,-79.559 6.561,-79.559 13.123,-68.193 			"/>
			<polygon fill="#D3CAB7" points="26.247,-45.463 19.685,-56.826 6.561,-56.826 13.123,-45.463 			"/>
			<polygon fill="#D3CAB7" points="45.932,-11.365 39.369,-22.732 26.247,-22.732 32.807,-11.365 			"/>
			<polygon fill="#D3CAB7" points="65.616,-22.73 59.054,-34.096 45.932,-34.096 52.493,-22.732 			"/>
			<polygon fill="#D3CAB7" points="85.302,-34.096 78.74,-45.463 65.616,-45.463 72.178,-34.096 			"/>
			<polygon fill="#D3CAB7" points="85.302,-56.828 78.74,-68.193 65.616,-68.193 72.178,-56.828 			"/>
			<polygon fill="#D3CAB7" points="85.302,-11.365 78.74,-22.732 65.616,-22.732 72.178,-11.365 			"/>
			<polygon fill="#D3CAB7" points="26.247,-22.732 19.685,-34.096 6.561,-34.096 13.123,-22.732 			"/>
			<polygon fill="#8C95AC" points="26.247,-22.732 19.685,-34.096 26.247,-45.463 32.807,-34.096 			"/>
			<polygon fill="#8C95AC" points="26.247,-45.463 19.685,-56.828 26.247,-68.193 32.807,-56.828 			"/>
			<polygon fill="#8C95AC" points="26.247,-68.193 19.685,-79.559 26.247,-90.924 32.807,-79.559 			"/>
			<polygon fill="#8C95AC" points="45.932,-56.828 39.369,-68.193 45.932,-79.559 52.493,-68.193 			"/>
			<polygon fill="#8C95AC" points="45.932,-34.096 39.369,-45.463 45.932,-56.826 52.493,-45.463 			"/>
			<polygon fill="#8C95AC" points="6.561,-56.828 0,-68.193 6.561,-79.559 13.123,-68.193 			"/>
			<polygon fill="#8C95AC" points="6.561,-34.096 0,-45.463 6.561,-56.826 13.123,-45.463 			"/>
			<polygon fill="#8C95AC" points="26.247,0 19.685,-11.365 26.247,-22.732 32.807,-11.365 			"/>
			<polygon fill="#8C95AC" points="45.932,-11.365 39.369,-22.732 45.932,-34.096 52.493,-22.732 			"/>
			<polygon fill="#8C95AC" points="65.616,-22.732 59.054,-34.096 65.616,-45.463 72.178,-34.096 			"/>
			<polygon fill="#8C95AC" points="65.616,-45.463 59.054,-56.828 65.616,-68.193 72.178,-56.828 			"/>
			<polygon fill="#8C95AC" points="65.616,-68.193 59.054,-79.559 65.616,-90.924 72.178,-79.559 			"/>
			<polygon fill="#8C95AC" points="85.302,-56.828 78.74,-68.193 85.302,-79.559 91.864,-68.193 			"/>
			<polygon fill="#8C95AC" points="85.302,-34.096 78.74,-45.463 85.302,-56.826 91.864,-45.463 			"/>
			<polygon fill="#8C95AC" points="65.616,0 59.054,-11.365 65.616,-22.732 72.178,-11.365 			"/>
			<polygon fill="#8C95AC" points="85.302,-11.365 78.74,-22.732 85.302,-34.096 91.864,-22.732 			"/>
			<polygon fill="#8C95AC" points="6.561,-11.365 0,-22.732 6.561,-34.096 13.123,-22.732 			"/>
		</g>
	</g>
</pattern>
<pattern  id="SVGID_1_" xlink:href="#Diamond_Cubes" patternTransform="matrix(1 0 0 -1 -57.0415 -17091.4512)">
</pattern>
<rect x="3.5" y="3.5" fill="url(#SVGID_1_)" stroke="#BDCCD4" stroke-width="7" stroke-miterlimit="10" width="200" height="200"/>
<g enable-background="new    ">
	<path fill="#272791" d="M45.429,157.459v16.32c1.399,0,2.6-0.296,3.602-0.888s1.821-1.352,2.457-2.28
		c0.636-0.928,1.105-1.976,1.407-3.145c0.302-1.167,0.454-2.327,0.454-3.479c0-1.023-0.104-2.08-0.312-3.168
		c-0.208-1.088-0.648-2.088-1.32-3c-0.672-0.912-1.632-1.663-2.88-2.256c-1.248-0.592-2.912-0.889-4.992-0.889
		c-1.409,0-2.736,0.217-3.984,0.648s-2.328,1.056-3.24,1.872s-1.632,1.824-2.16,3.024c-0.528,1.199-0.792,2.584-0.792,4.151
		c0,0.992,0.08,1.824,0.24,2.496c0.16,0.672,0.352,1.232,0.576,1.68c0.224,0.449,0.448,0.792,0.672,1.032
		c0.223,0.24,0.399,0.408,0.528,0.504c-1.792,0-3.2-0.447-4.224-1.344c-1.024-0.896-1.536-2.384-1.536-4.464
		c0-1.536,0.4-2.983,1.2-4.344c0.799-1.36,1.872-2.561,3.216-3.601c1.344-1.039,2.896-1.863,4.656-2.472
		c1.759-0.607,3.616-0.912,5.568-0.912c2.112,0,4,0.264,5.664,0.792c1.664,0.528,3.056,1.265,4.176,2.208
		c1.12,0.944,1.975,2.04,2.568,3.288c0.592,1.248,0.888,2.592,0.888,4.032c0,1.344-0.239,2.729-0.718,4.151
		c-0.479,1.425-1.195,2.712-2.151,3.864c-0.957,1.152-2.144,2.104-3.562,2.856c-1.419,0.752-3.068,1.128-4.948,1.128h-1.052v13.68
		h-5.232V158.18L45.429,157.459z"/>
	<path fill="#272791" d="M76.245,164.947v16.32c0,0.32,0.016,0.72,0.048,1.199c0.032,0.48,0.12,0.953,0.264,1.416
		c0.144,0.465,0.36,0.864,0.648,1.2s0.688,0.504,1.2,0.504c1.567,0,2.719-1.743,3.456-5.231h1.776
		c-0.353,2.016-0.8,3.608-1.344,4.775c-0.544,1.169-1.12,2.057-1.728,2.664c-0.608,0.608-1.232,1.001-1.872,1.177
		c-0.641,0.175-1.217,0.264-1.728,0.264c-0.737,0-1.368-0.128-1.896-0.384c-0.528-0.256-0.977-0.592-1.344-1.008
		c-0.368-0.416-0.665-0.896-0.888-1.44c-0.225-0.544-0.401-1.12-0.528-1.729c-0.48,1.248-1.256,2.321-2.328,3.217
		c-1.072,0.896-2.376,1.344-3.912,1.344c-0.96,0-1.928-0.192-2.904-0.576c-0.977-0.384-1.856-1.016-2.64-1.896
		c-0.785-0.88-1.424-2.017-1.92-3.408c-0.496-1.393-0.744-3.097-0.744-5.112c0-1.472,0.168-3.008,0.504-4.607
		c0.336-1.601,0.872-3.056,1.608-4.368c0.736-1.312,1.68-2.4,2.832-3.265c1.152-0.863,2.544-1.296,4.176-1.296
		c0.384,0,0.792,0.04,1.224,0.118c0.432,0.078,0.848,0.212,1.248,0.4c0.4,0.188,0.775,0.447,1.128,0.777
		c0.352,0.33,0.64,0.73,0.864,1.202v-2.258H76.245z M67.269,185.587c0.48,0,0.968-0.136,1.464-0.408
		c0.496-0.273,0.943-0.643,1.344-1.107c0.4-0.465,0.728-1.019,0.984-1.66c0.256-0.642,0.384-1.331,0.384-2.069v-10.974
		c-0.225-0.513-0.569-0.985-1.032-1.419c-0.464-0.434-1.064-0.65-1.8-0.65c-1.024,0-1.904,0.346-2.64,1.035
		c-0.736,0.69-1.328,1.557-1.776,2.599c-0.449,1.043-0.776,2.183-0.984,3.417c-0.208,1.235-0.312,2.415-0.312,3.537
		c0,2.761,0.375,4.733,1.128,5.92C64.781,184.994,65.861,185.587,67.269,185.587z"/>
	<path fill="#272791" d="M86.661,157.651v7.296h3.696v1.728h-3.696v14.604c0,0.384,0.016,0.822,0.048,1.317
		c0.032,0.495,0.12,0.965,0.264,1.412s0.367,0.822,0.672,1.125c0.304,0.303,0.728,0.454,1.272,0.454
		c0.864,0,1.688-0.432,2.472-1.296c0.784-0.863,1.399-2.176,1.848-3.936h1.776c-0.545,2.016-1.128,3.608-1.752,4.775
		c-0.624,1.169-1.272,2.057-1.944,2.664c-0.672,0.608-1.336,1.001-1.992,1.177c-0.656,0.175-1.256,0.264-1.8,0.264
		c-1.152,0-2.096-0.216-2.832-0.646c-0.736-0.431-1.312-0.981-1.728-1.652c-0.416-0.671-0.704-1.413-0.864-2.228
		c-0.161-0.814-0.24-1.621-0.24-2.419v-15.615h-1.632v-1.728h1.632v-6.624L86.661,157.651z"/>
	<path fill="#272791" d="M97.988,157.651v7.296h3.696v1.728h-3.696v14.604c0,0.384,0.016,0.822,0.048,1.317
		c0.032,0.495,0.12,0.965,0.264,1.412s0.367,0.822,0.672,1.125c0.304,0.303,0.728,0.454,1.272,0.454
		c0.864,0,1.688-0.432,2.472-1.296c0.784-0.863,1.399-2.176,1.848-3.936h1.776c-0.545,2.016-1.129,3.608-1.753,4.775
		c-0.623,1.169-1.271,2.057-1.943,2.664c-0.672,0.608-1.336,1.001-1.992,1.177c-0.656,0.175-1.256,0.264-1.8,0.264
		c-1.152,0-2.096-0.216-2.832-0.646c-0.736-0.431-1.312-0.981-1.728-1.652c-0.416-0.671-0.704-1.413-0.864-2.228
		c-0.161-0.814-0.24-1.621-0.24-2.419v-15.615h-1.632v-1.728h1.632v-6.624L97.988,157.651z"/>
	<path fill="#272791" d="M119.491,170.947c0,2.24-0.92,4.112-2.76,5.616c-1.841,1.504-4.392,2.432-7.656,2.784
		c0.128,1.28,0.36,2.32,0.696,3.119c0.336,0.801,0.744,1.433,1.224,1.896c0.48,0.464,1.032,0.784,1.656,0.96
		c0.624,0.177,1.272,0.264,1.944,0.264c1.536,0,2.976-0.399,4.319-1.199c1.345-0.8,2.432-2.144,3.265-4.032h1.536
		c-0.417,1.184-0.992,2.312-1.729,3.384c-0.736,1.072-1.601,2.016-2.592,2.832c-0.992,0.816-2.064,1.464-3.216,1.944
		c-1.152,0.479-2.336,0.72-3.552,0.72c-1.121,0-2.201-0.192-3.24-0.576c-1.04-0.384-1.961-1.016-2.76-1.896
		c-0.801-0.88-1.448-2.023-1.944-3.433c-0.496-1.407-0.744-3.136-0.744-5.184c0-1.344,0.151-2.8,0.456-4.368
		c0.304-1.567,0.816-3.024,1.536-4.368s1.663-2.464,2.832-3.36c1.168-0.895,2.616-1.344,4.344-1.344c0.8,0,1.576,0.089,2.328,0.265
		s1.432,0.496,2.04,0.96c0.607,0.464,1.096,1.096,1.464,1.896C119.307,168.628,119.491,169.668,119.491,170.947z M109.027,177.476
		c2.271-0.353,4.072-1.152,5.4-2.4c1.327-1.248,1.992-2.784,1.992-4.608c0-1.215-0.209-2.088-0.624-2.615
		c-0.417-0.528-1.009-0.792-1.776-0.792c-0.832,0-1.56,0.32-2.184,0.96c-0.624,0.641-1.145,1.464-1.561,2.472
		s-0.729,2.129-0.936,3.36C109.131,175.084,109.027,176.292,109.027,177.476z"/>
	<path fill="#272791" d="M126.931,164.947v4.032c0.385-0.576,0.76-1.12,1.129-1.632c0.367-0.512,0.775-0.96,1.224-1.345
		c0.447-0.384,0.943-0.695,1.488-0.936c0.543-0.24,1.151-0.36,1.823-0.36c1.088,0,1.888,0.28,2.4,0.84
		c0.512,0.561,0.768,1.241,0.768,2.04c0,0.48-0.08,0.881-0.239,1.2c-0.161,0.32-0.353,0.576-0.576,0.769
		c-0.225,0.191-0.465,0.328-0.72,0.407c-0.257,0.081-0.48,0.12-0.673,0.12c-0.287,0-0.521-0.063-0.695-0.191
		c-0.177-0.128-0.353-0.265-0.528-0.408c-0.176-0.145-0.376-0.28-0.6-0.408c-0.225-0.127-0.513-0.192-0.864-0.192
		c-0.736,0-1.44,0.257-2.112,0.769s-1.28,1.056-1.824,1.632v17.664h-4.8v-24H126.931z"/>
	<path fill="#272791" d="M143.059,164.947v3.648c0.48-0.864,0.968-1.561,1.465-2.089c0.495-0.527,0.999-0.919,1.512-1.176
		c0.512-0.256,1-0.424,1.464-0.504c0.464-0.079,0.903-0.12,1.32-0.12c1.439,0,2.6,0.272,3.479,0.816s1.544,1.24,1.992,2.088
		c0.448,0.849,0.744,1.784,0.888,2.808c0.145,1.024,0.217,2.017,0.217,2.977c0,1.056-0.041,2.336-0.12,3.84
		c-0.081,1.505-0.12,2.96-0.12,4.368c0,0.32,0.016,0.704,0.048,1.151c0.031,0.449,0.127,0.881,0.288,1.296
		c0.159,0.417,0.399,0.776,0.72,1.08c0.319,0.305,0.784,0.456,1.392,0.456c0.224,0,0.496-0.023,0.816-0.071
		c0.319-0.049,0.56-0.152,0.72-0.312v0.336c0,0.864-0.112,1.536-0.336,2.017c-0.224,0.479-0.496,0.848-0.815,1.104
		c-0.32,0.257-0.672,0.416-1.057,0.48c-0.384,0.063-0.72,0.096-1.008,0.096c-0.992,0-1.84-0.2-2.544-0.6
		c-0.704-0.4-1.288-0.937-1.752-1.608s-0.8-1.447-1.008-2.328c-0.209-0.88-0.312-1.815-0.312-2.808c0-0.288,0.008-0.824,0.024-1.608
		c0.016-0.783,0.031-1.624,0.048-2.52c0.016-0.896,0.031-1.744,0.048-2.544c0.016-0.8,0.024-1.36,0.024-1.681
		c0-1.023-0.08-1.872-0.24-2.544s-0.384-1.2-0.672-1.584s-0.616-0.655-0.984-0.815s-0.76-0.24-1.176-0.24
		c-0.992,0-1.848,0.4-2.568,1.2c-0.72,0.8-1.304,2.144-1.752,4.031v15.36h-4.8v-24H143.059z"/>
	<path fill="#272791" d="M161.73,186.02c0-0.864,0.304-1.616,0.912-2.256c0.607-0.641,1.359-0.96,2.256-0.96
		c0.864,0,1.615,0.319,2.256,0.96c0.64,0.64,0.96,1.392,0.96,2.256c0,0.896-0.32,1.648-0.96,2.256
		c-0.641,0.608-1.392,0.912-2.256,0.912c-0.896,0-1.648-0.304-2.256-0.912C162.034,187.668,161.73,186.915,161.73,186.02z
		 M163.507,177.859l-1.345-22.512h5.376l-1.487,22.512H163.507z"/>
</g>
</svg>
