<?xml version="1.0" encoding="utf-8"?>
<!-- Generator: Adobe Illustrator 27.2.0, SVG Export Plug-In . SVG Version: 6.00 Build 0)  -->
<svg version="1.1" id="Layer_1" xmlns="http://www.w3.org/2000/svg" xmlns:xlink="http://www.w3.org/1999/xlink" x="0px" y="0px"
	 viewBox="0 0 207 207" style="enable-background:new 0 0 207 207;" xml:space="preserve">
<style type="text/css">
	.st0{fill:none;}
	.st1{fill:#D3CAB7;}
	.st2{fill:#8C95AC;}
	.st3{fill:url(#SVGID_00000142171005142291466080000017066360071607763120_);stroke:#BDCCD4;stroke-width:7;stroke-miterlimit:10;}
	.st4{fill:#272791;}
	.st5{font-family:'ArialMT';}
	.st6{font-size:48px;}
</style>
<pattern  y="207" width="78.7" height="68.2" patternUnits="userSpaceOnUse" id="SVGID_1_" viewBox="6.6 -79.6 78.7 68.2" style="overflow:visible;">
	<g>
		<rect x="6.6" y="-79.6" class="st0" width="78.7" height="68.2"/>
		<g>
			<polygon class="st0" points="6.6,-79.6 85.3,-79.6 85.3,-11.4 6.6,-11.4 			"/>
			<g>
				<polygon class="st0" points="6.6,-11.4 6.6,-79.6 85.3,-79.6 85.3,-11.4 				"/>
				<polygon class="st0" points="85.3,-79.6 85.3,-11.4 6.6,-11.4 6.6,-79.6 				"/>
				<polygon class="st1" points="45.9,-56.8 39.4,-45.5 26.2,-45.5 32.8,-56.8 				"/>
				<polygon class="st1" points="45.9,-34.1 39.4,-22.7 26.2,-22.7 32.8,-34.1 				"/>
				<polygon class="st1" points="65.6,-22.7 59.1,-11.4 45.9,-11.4 52.5,-22.7 				"/>
				<polygon class="st1" points="65.6,-45.5 59.1,-34.1 45.9,-34.1 52.5,-45.5 				"/>
				<polygon class="st1" points="26.2,-22.7 19.7,-11.4 6.6,-11.4 13.1,-22.7 				"/>
				<polygon class="st1" points="26.2,-45.5 19.7,-34.1 6.6,-34.1 13.1,-45.5 				"/>
				<polygon class="st1" points="45.9,-79.6 39.4,-68.2 26.2,-68.2 32.8,-79.6 				"/>
				<polygon class="st1" points="65.6,-68.2 59.1,-56.8 45.9,-56.8 52.5,-68.2 				"/>
				<polygon class="st1" points="85.3,-56.8 78.7,-45.5 65.6,-45.5 72.2,-56.8 				"/>
				<polygon class="st1" points="85.3,-34.1 78.7,-22.7 65.6,-22.7 72.2,-34.1 				"/>
				<polygon class="st1" points="85.3,-79.6 78.7,-68.2 65.6,-68.2 72.2,-79.6 				"/>
				<polygon class="st1" points="26.2,-68.2 19.7,-56.8 6.6,-56.8 13.1,-68.2 				"/>
				<polygon class="st2" points="26.2,-68.2 19.7,-56.8 26.2,-45.5 32.8,-56.8 				"/>
				<polygon class="st2" points="26.2,-45.5 19.7,-34.1 26.2,-22.7 32.8,-34.1 				"/>
				<polygon class="st2" points="26.2,-22.7 19.7,-11.4 26.2,0 32.8,-11.4 				"/>
				<polygon class="st2" points="45.9,-34.1 39.4,-22.7 45.9,-11.4 52.5,-22.7 				"/>
				<polygon class="st2" points="45.9,-56.8 39.4,-45.5 45.9,-34.1 52.5,-45.5 				"/>
				<polygon class="st2" points="6.6,-34.1 0,-22.7 6.6,-11.4 13.1,-22.7 				"/>
				<polygon class="st2" points="6.6,-56.8 0,-45.5 6.6,-34.1 13.1,-45.5 				"/>
				<polygon class="st2" points="26.2,-90.9 19.7,-79.6 26.2,-68.2 32.8,-79.6 				"/>
				<polygon class="st2" points="45.9,-79.6 39.4,-68.2 45.9,-56.8 52.5,-68.2 				"/>
				<polygon class="st2" points="65.6,-68.2 59.1,-56.8 65.6,-45.5 72.2,-56.8 				"/>
				<polygon class="st2" points="65.6,-45.5 59.1,-34.1 65.6,-22.7 72.2,-34.1 				"/>
				<polygon class="st2" points="65.6,-22.7 59.1,-11.4 65.6,0 72.2,-11.4 				"/>
				<polygon class="st2" points="85.3,-34.1 78.7,-22.7 85.3,-11.4 91.9,-22.7 				"/>
				<polygon class="st2" points="85.3,-56.8 78.7,-45.5 85.3,-34.1 91.9,-45.5 				"/>
				<polygon class="st2" points="65.6,-90.9 59.1,-79.6 65.6,-68.2 72.2,-79.6 				"/>
				<polygon class="st2" points="85.3,-79.6 78.7,-68.2 85.3,-56.8 91.9,-68.2 				"/>
				<polygon class="st2" points="6.6,-79.6 0,-68.2 6.6,-56.8 13.1,-68.2 				"/>
			</g>
		</g>
	</g>
</pattern>
<pattern  id="SVGID_00000057844923494380393710000016545940514350601349_" xlink:href="#SVGID_1_" patternTransform="matrix(1 0 0 1 -239.0835 17431.1172)">
</pattern>
<rect x="3.5" y="3.5" style="fill:url(#SVGID_00000057844923494380393710000016545940514350601349_);stroke:#BDCCD4;stroke-width:7;stroke-miterlimit:10;" width="200" height="200"/>
<text transform="matrix(1 0 0 1 29.0605 188.9473)" class="st4 st5 st6">Pattern!</text>
</svg>
